<svg width="499" height="339" viewBox="0 0 499 339" fill="none" xmlns="http://www.w3.org/2000/svg">
<path d="M182.21 17.9C182.211 19.0534 182.44 20.1952 182.883 21.26C183.327 22.3248 183.975 23.2918 184.793 24.1055C185.61 24.9192 186.58 25.5637 187.647 26.002C188.714 26.4403 189.857 26.6639 191.01 26.66C193.334 26.66 195.563 25.7374 197.208 24.0948C198.852 22.4523 199.777 20.2242 199.78 17.9C199.767 15.5827 198.837 13.3649 197.194 11.731C195.55 10.0971 193.327 9.17995 191.01 9.17999C188.688 9.17464 186.459 10.0891 184.81 11.7233C183.161 13.3575 182.226 15.5783 182.21 17.9Z" fill="#FFFFF5"/>
<path d="M112.92 47.18C112.92 48.3317 113.147 49.4721 113.588 50.5361C114.028 51.6001 114.674 52.5669 115.489 53.3813C116.303 54.1957 117.27 54.8417 118.334 55.2824C119.398 55.7231 120.538 55.95 121.69 55.95C124.017 55.95 126.249 55.0263 127.895 53.3819C129.541 51.7375 130.467 49.5069 130.47 47.18C130.469 46.0283 130.241 44.8881 129.799 43.8246C129.357 42.7611 128.71 41.795 127.894 40.9816C127.079 40.1681 126.111 39.5233 125.047 39.0837C123.982 38.6442 122.842 38.4187 121.69 38.42C119.366 38.42 117.137 39.3426 115.492 40.9851C113.848 42.6277 112.923 44.8558 112.92 47.18Z" fill="#FFFFF5"/>
<path d="M46.38 106.98C46.3839 108.716 46.9022 110.411 47.8694 111.852C48.8366 113.294 50.2092 114.416 51.8139 115.077C53.4185 115.739 55.1833 115.91 56.8851 115.569C58.5869 115.228 60.1495 114.39 61.3754 113.161C62.6013 111.933 63.4356 110.368 63.7727 108.666C64.1099 106.963 63.9348 105.199 63.2697 103.595C62.6046 101.992 61.4792 100.622 60.0358 99.6583C58.5924 98.6944 56.8957 98.18 55.16 98.18C54.0049 98.1787 52.861 98.4055 51.7938 98.8476C50.7267 99.2896 49.7574 99.938 48.9416 100.756C48.1257 101.573 47.4795 102.544 47.0399 103.612C46.6003 104.68 46.376 105.825 46.38 106.98Z" fill="#FFFFF5"/>
<path d="M0.300011 266.02C0.296053 267.758 0.807877 269.458 1.77067 270.904C2.73346 272.351 4.10391 273.48 5.70848 274.147C7.31305 274.814 9.07955 274.99 10.7843 274.653C12.489 274.316 14.0553 273.48 15.2848 272.252C16.5144 271.024 17.3518 269.458 17.691 267.754C18.0303 266.05 17.8562 264.283 17.1907 262.678C16.5252 261.072 15.3983 259.701 13.9527 258.736C12.5071 257.772 10.8078 257.258 9.07001 257.26C7.91879 257.259 6.7786 257.484 5.71463 257.924C4.65066 258.364 3.68379 259.009 2.86929 259.822C2.05479 260.636 1.40864 261.602 0.967781 262.665C0.526925 263.729 0.30001 264.869 0.300011 266.02Z" fill="#FFFFF5"/>
<path d="M25.67 329.62C25.666 331.358 26.1779 333.058 27.1407 334.504C28.1035 335.951 29.4739 337.08 31.0785 337.747C32.683 338.414 34.4495 338.59 36.1543 338.253C37.859 337.916 39.4253 337.08 40.6548 335.852C41.8843 334.624 42.7218 333.058 43.061 331.354C43.4003 329.65 43.2262 327.883 42.5607 326.278C41.8952 324.672 40.7683 323.301 39.3227 322.336C37.8771 321.372 36.1778 320.858 34.44 320.86C32.1158 320.86 29.8866 321.783 28.2422 323.425C26.5978 325.068 25.6727 327.296 25.67 329.62Z" fill="#FFFFF5"/>
<path d="M316.18 17.9C316.18 19.0512 315.953 20.1911 315.512 21.2546C315.071 22.3181 314.425 23.2842 313.611 24.0978C312.796 24.9114 311.829 25.5564 310.765 25.996C309.701 26.4357 308.561 26.6613 307.41 26.66C306.258 26.6613 305.118 26.4358 304.053 25.9962C302.989 25.5567 302.021 24.9118 301.206 24.0984C300.39 23.285 299.743 22.3189 299.301 21.2554C298.859 20.1918 298.631 19.0517 298.63 17.9C298.646 15.5818 299.578 13.364 301.223 11.7303C302.868 10.0967 305.092 9.17994 307.41 9.17999C309.727 9.17996 311.95 10.0971 313.594 11.731C315.237 13.3649 316.167 15.5827 316.18 17.9Z" fill="#FFFFF5"/>
<path d="M385.48 47.18C385.477 49.5069 384.551 51.7375 382.905 53.3819C381.259 55.0263 379.027 55.95 376.7 55.95C374.374 55.95 372.143 55.026 370.499 53.3813C368.854 51.7366 367.93 49.5059 367.93 47.18C367.933 44.8558 368.858 42.6277 370.502 40.9851C372.147 39.3426 374.376 38.42 376.7 38.42C377.852 38.4187 378.992 38.6442 380.057 39.0837C381.121 39.5233 382.089 40.1681 382.904 40.9816C383.72 41.795 384.367 42.7611 384.809 43.8246C385.251 44.8881 385.479 46.0283 385.48 47.18Z" fill="#FFFFF5"/>
<path d="M452.01 106.98C452.006 108.716 451.487 110.412 450.52 111.853C449.552 113.295 448.179 114.417 446.574 115.078C444.968 115.74 443.203 115.91 441.501 115.568C439.799 115.226 438.236 114.387 437.011 113.158C435.785 111.928 434.952 110.363 434.616 108.659C434.28 106.956 434.456 105.191 435.123 103.589C435.79 101.986 436.917 100.616 438.361 99.6535C439.806 98.6908 441.504 98.178 443.24 98.18C444.395 98.1787 445.538 98.4056 446.605 98.8477C447.671 99.2899 448.64 99.9385 449.455 100.756C450.27 101.574 450.915 102.545 451.354 103.613C451.792 104.681 452.015 105.825 452.01 106.98Z" fill="#FFFFF5"/>
<path d="M489.33 181.79C489.334 183.527 488.822 185.227 487.86 186.673C486.898 188.12 485.528 189.248 483.924 189.916C482.32 190.584 480.554 190.76 478.849 190.424C477.145 190.087 475.579 189.253 474.349 188.025C473.119 186.798 472.281 185.234 471.94 183.53C471.6 181.827 471.772 180.06 472.436 178.455C473.1 176.849 474.226 175.477 475.67 174.511C477.114 173.545 478.813 173.03 480.55 173.03C481.702 173.029 482.842 173.254 483.907 173.694C484.971 174.133 485.939 174.778 486.754 175.592C487.57 176.405 488.217 177.371 488.659 178.435C489.101 179.498 489.329 180.638 489.33 181.79Z" fill="#FFFFF5"/>
<path d="M498.1 266.02C498.104 267.758 497.592 269.458 496.629 270.904C495.667 272.351 494.296 273.48 492.692 274.147C491.087 274.814 489.32 274.99 487.616 274.653C485.911 274.316 484.345 273.48 483.115 272.252C481.886 271.024 481.048 269.458 480.709 267.754C480.37 266.05 480.544 264.283 481.209 262.678C481.875 261.072 483.002 259.701 484.447 258.736C485.893 257.772 487.592 257.258 489.33 257.26C491.654 257.26 493.883 258.183 495.528 259.825C497.172 261.468 498.097 263.696 498.1 266.02Z" fill="#FFFFF5"/>
<path d="M469.46 338.88C474.309 338.88 478.24 334.958 478.24 330.12C478.24 325.282 474.309 321.36 469.46 321.36C464.611 321.36 460.68 325.282 460.68 330.12C460.68 334.958 464.611 338.88 469.46 338.88Z" fill="#FFFFF5"/>
<path d="M244.13 9.17999C244.13 11.5059 245.054 13.7366 246.699 15.3813C248.343 17.026 250.574 17.95 252.9 17.95C255.227 17.95 257.459 17.0263 259.105 15.3819C260.751 13.7375 261.677 11.5069 261.68 9.17999C261.679 8.0283 261.451 6.88814 261.009 5.82461C260.567 4.76109 259.92 3.79503 259.104 2.98159C258.289 2.16815 257.321 1.52326 256.257 1.08374C255.192 0.644218 254.052 0.418675 252.9 0.419989C251.749 0.418674 250.609 0.644294 249.545 1.08394C248.481 1.52358 247.514 2.16863 246.699 2.9822C245.885 3.79577 245.239 4.7619 244.798 5.82537C244.357 6.88883 244.13 8.02877 244.13 9.17999Z" fill="#FFFFF5"/>
</svg>
